<svg width="20" height="21" viewBox="0 0 20 21" fill="none" xmlns="http://www.w3.org/2000/svg">
<rect x="0.75" y="1.25" width="18.5" height="18.5" rx="9.25" stroke="#C3C3C3" stroke-width="1.5"/>
<path d="M8.33078 12.5659C8.34625 10.5937 8.90313 9.99039 9.87766 9.39484C10.5351 8.96945 11.0455 8.45125 11.0378 7.67781C11.0455 6.81156 10.3649 6.25469 9.52188 6.25469C8.75617 6.25469 8.01367 6.74969 7.95953 7.78609H6.02594C6.08008 5.70555 7.62695 4.64594 9.53734 4.64594C11.6256 4.64594 13.0565 5.80609 13.0642 7.64687C13.0565 8.90758 12.43 9.72742 11.4245 10.323C10.5273 10.8721 10.1561 11.4058 10.1406 12.5659V12.7052H8.33078V12.5659ZM8.08328 14.9172C8.07555 14.2675 8.62469 13.7338 9.28984 13.7261C9.9318 13.7338 10.4809 14.2675 10.4809 14.9172C10.4809 15.5823 9.9318 16.1238 9.28984 16.1238C8.62469 16.1238 8.07555 15.5823 8.08328 14.9172Z" fill="#C3C3C3"/>
</svg>
