<svg width="512" height="512" viewBox="0 0 512 512" fill="none" xmlns="http://www.w3.org/2000/svg">
<path d="M256 336C291.346 336 320 307.346 320 272C320 236.654 291.346 208 256 208C220.654 208 192 236.654 192 272C192 307.346 220.654 336 256 336Z" fill="#666666"/>
<path d="M456 144H373C370 144 366.28 142.06 363.38 139L336.1 96.2C325 80 320 80 302 80H210C192 80 186 80 175.93 96.21L148.62 139C146.4 141.42 143.28 144 140 144V128C140 125.878 139.157 123.843 137.657 122.343C136.157 120.843 134.122 120 132 120H92C89.8783 120 87.8434 120.843 86.3431 122.343C84.8429 123.843 84 125.878 84 128V144H56C49.6348 144 43.5303 146.529 39.0294 151.029C34.5286 155.53 32 161.635 32 168V408C32 414.365 34.5286 420.47 39.0294 424.971C43.5303 429.471 49.6348 432 56 432H456C462.365 432 468.47 429.471 472.971 424.971C477.471 420.47 480 414.365 480 408V168C480 161.635 477.471 155.53 472.971 151.029C468.47 146.529 462.365 144 456 144ZM260.51 367.9C241.16 368.809 221.988 363.843 205.513 353.654C189.038 343.466 176.031 328.532 168.2 310.814C160.369 293.097 158.081 273.425 161.637 254.383C165.193 235.341 174.426 217.821 188.123 204.123C201.821 190.426 219.341 181.193 238.383 177.637C257.425 174.081 277.097 176.369 294.814 184.2C312.532 192.031 327.466 205.038 337.654 221.513C347.843 237.988 352.809 257.16 351.9 276.51C350.754 300.378 340.758 322.964 323.861 339.861C306.964 356.758 284.378 366.754 260.51 367.9Z" fill="#666666"/>
</svg>
