<svg width="1760" height="1085" viewBox="0 0 1760 1085" fill="none" xmlns="http://www.w3.org/2000/svg">
<rect width="1760" height="1085" rx="80" fill="#E2E2E2"/>
<path d="M165.039 159.547C180.527 159.61 191.763 172.687 193.604 193.697H217.09V151.041H229.023V265.045H217.09V203.473H193.73C192.397 225.689 180.908 239.464 165.039 239.4C148.091 239.464 136.094 223.976 136.221 199.41C136.094 175.099 148.091 159.61 165.039 159.547ZM147.646 199.41C147.71 217.501 154.756 228.609 165.039 228.609C175.322 228.609 182.368 217.501 182.432 199.41C182.368 181.573 175.322 170.401 165.039 170.338C154.756 170.401 147.71 181.573 147.646 199.41ZM344.424 218.326V227.594H262.031V218.326H297.324V208.043H309.258V218.326H344.424ZM249.336 203.727V156.373H278.281V165.895H261.016V194.205C266.665 193.951 272.822 193.443 279.678 191.92L280.693 201.441C270.347 203.727 262.285 203.79 254.414 203.727H249.336ZM270.283 248.414C270.22 238.131 282.471 232.354 303.037 232.291C323.667 232.354 335.791 238.131 335.791 248.414C335.791 259.078 323.667 264.728 303.037 264.791C282.471 264.728 270.22 259.078 270.283 248.414ZM282.979 248.414C283.042 253.619 290.405 256.285 303.037 256.285C315.669 256.285 322.905 253.619 322.969 248.414C322.905 243.526 315.669 240.86 303.037 240.797C290.405 240.86 283.042 243.526 282.979 248.414ZM284.375 203.727V156.373H316.113V165.895H296.182V194.269C305.576 194.078 312.241 193.57 319.922 191.793L321.064 201.441C311.416 203.536 303.481 203.79 290.088 203.727H284.375ZM311.543 183.541V174.146H330.586V151.041H342.393V211.598H330.586V183.541H311.543ZM456.65 151.041V264.791H445.225V151.041H456.65ZM358.516 231.91C382.637 217.564 394.189 198.458 396.284 175.035H363.848V165.133H408.281C408.218 176.241 406.694 186.842 403.203 196.744H421.23V153.961H432.656V259.205H421.23V206.393H399.014C392.285 219.596 381.431 231.148 365.371 240.543L358.516 231.91ZM606.963 210.582V220.23H561.768V241.178H549.834V220.23H502.861V210.582H606.963ZM515.811 262.379V231.275H527.744V252.604H595.41V262.379H515.811ZM516.572 200.553V154.596H528.506V168.434H581.191V154.596H593.252V200.553H516.572ZM528.506 190.904H581.191V177.447H528.506V190.904ZM709.795 151.041V265.045H697.734V151.041H709.795ZM621.689 171.1V161.324H675.01V202.838H634.131V227.721C652.603 227.657 668.662 226.769 687.705 223.658L688.848 233.561C668.726 236.925 651.587 237.687 631.465 237.75H621.816V193.189H662.695V171.1H621.689ZM785.967 161.07C785.903 176.178 804.375 190.333 826.719 193.316L822.021 203.219C803.423 200.235 787.109 190.587 779.683 177.193C772.256 190.587 755.942 200.235 737.471 203.219L732.646 193.316C754.927 190.333 773.335 176.368 773.398 161.07V154.85H785.967V161.07ZM727.695 224.293V214.391H831.416V224.293H785.205V264.791H773.398V224.293H727.695ZM934.756 151.041V264.791H922.822V206.012H897.305V196.109H922.822V151.041H934.756ZM839.795 234.195C869.946 219.469 883.34 198.966 885.435 172.877H844.873V163.229H897.686C897.559 196.173 884.736 224.61 846.143 243.717L839.795 234.195ZM1040.38 169.83V179.605H983.887V169.83H1006.23V154.342H1018.16V169.83H1040.38ZM987.568 212.613C987.505 197.315 997.915 186.461 1012.2 186.461C1026.61 186.461 1036.89 197.315 1036.95 212.613C1036.89 228.165 1026.61 239.083 1012.2 239.02C997.915 239.083 987.505 228.165 987.568 212.613ZM998.232 212.613C998.169 222.262 1004.01 228.736 1012.2 228.736C1020.39 228.736 1026.29 222.262 1026.29 212.613C1026.29 203.155 1020.39 196.554 1012.2 196.49C1004.01 196.554 998.169 203.155 998.232 212.613ZM1045.59 259.459V153.58H1057.01V198.395H1070.09V151.041H1081.51V264.791H1070.09V208.297H1057.01V259.459H1045.59ZM1126.96 159.547C1143.97 159.61 1156.1 175.099 1156.16 199.41C1156.1 223.976 1143.97 239.464 1126.96 239.4C1109.95 239.464 1097.83 223.976 1097.89 199.41C1097.83 175.099 1109.95 159.61 1126.96 159.547ZM1109.44 199.41C1109.38 217.501 1116.62 228.609 1126.96 228.609C1137.5 228.609 1144.61 217.501 1144.61 199.41C1144.61 181.573 1137.5 170.401 1126.96 170.338C1116.62 170.401 1109.38 181.573 1109.44 199.41ZM1173.05 264.791V151.041H1185.11V178.844H1202.75V189.127H1185.11V212.74H1202.75V222.643H1185.11V264.791H1173.05ZM1298.22 150.66V177.32H1314.85V187.223H1298.22V213.248H1286.16V150.66H1298.22ZM1208.97 170.211V160.689H1236.9V150.025H1248.96V160.689H1276.77V170.211H1208.97ZM1215.2 193.189C1215.13 181.7 1226.18 174.527 1242.87 174.527C1259.57 174.527 1270.42 181.7 1270.42 193.189C1270.42 204.742 1259.57 211.788 1242.87 211.725C1226.18 211.788 1215.13 204.742 1215.2 193.189ZM1224.72 227.594V218.58H1298.22V244.986H1236.78V254.508H1302.16V263.648H1224.97V236.48H1286.29V227.594H1224.72ZM1226.88 193.189C1226.75 199.347 1233.03 202.965 1242.87 202.965C1252.65 202.965 1258.99 199.347 1259.12 193.189C1258.99 187.032 1252.65 183.224 1242.87 183.16C1233.03 183.224 1226.75 187.032 1226.88 193.189ZM1394.83 184.557C1394.77 203.6 1407.28 223.277 1424.79 230.768L1418.19 240.162C1404.8 234.259 1394.14 221.69 1388.87 206.52C1383.6 222.77 1372.93 236.607 1359.67 243.082L1352.69 233.561C1369.82 225.499 1382.52 204.171 1382.65 184.557V172.496H1356.62V162.467H1420.73V172.496H1394.83V184.557ZM1435.08 264.791V151.041H1447.14V264.791H1435.08ZM1601.13 240.543V250.572H1497.03V240.543H1542.86V214.264H1508.96V160.182H1588.69V214.264H1554.79V240.543H1601.13ZM1520.64 204.742H1576.88V169.83H1520.64V204.742ZM238.164 358.219V367.486H134.062V358.219H238.164ZM146.377 384.117V375.484H225.342V400.494H158.564V409.889H228.896V418.395H146.504V392.496H213.408V384.117H146.377ZM147.139 317.467V308.961H225.088V333.59H159.326V342.223H226.992V350.729H147.393V325.592H213.027V317.467H147.139ZM353.945 308.326V351.744H366.006V306.041H377.432V419.791H366.006V361.646H353.945V414.332H342.773V308.326H353.945ZM281.201 390.846V320.133H305.83V330.035H292.246V380.562C296.245 380.372 300.942 379.801 306.211 378.531L307.227 388.688C298.086 390.655 291.104 390.846 285.898 390.846H281.201ZM310.527 390.846V320.133H335.791V330.035H321.445V380.626C326.27 380.499 331.729 379.928 337.695 378.277L338.711 388.434C329.57 390.719 322.08 390.846 315.352 390.846H310.527ZM411.074 400.24L400.918 435.279H390.127L396.855 400.24H411.074ZM549.834 306.041V420.045H537.773V306.041H549.834ZM459.57 354.41C459.57 330.099 471.821 314.61 489.023 314.547C505.908 314.61 518.35 330.099 518.35 354.41C518.35 378.976 505.908 394.464 489.023 394.4C471.821 394.464 459.57 378.976 459.57 354.41ZM471.25 354.41C471.187 372.501 478.423 383.609 489.023 383.609C499.434 383.609 506.67 372.501 506.67 354.41C506.67 336.573 499.434 325.401 489.023 325.338C478.423 325.401 471.187 336.573 471.25 354.41ZM627.656 316.959V391.734H574.336V316.959H627.656ZM586.27 381.959H615.977V326.48H586.27V381.959ZM650.127 420.045V306.041H662.188V420.045H650.127ZM722.236 339.557C722.173 358.6 734.678 378.277 752.197 385.768L745.596 395.162C732.202 389.259 721.538 376.69 716.27 361.52C711.001 377.77 700.337 391.607 687.07 398.082L680.088 388.561C697.227 380.499 709.922 359.171 710.049 339.557V327.496H684.023V317.467H748.135V327.496H722.236V339.557ZM762.48 419.791V306.041H774.541V419.791H762.48ZM896.67 358.219V367.486H792.568V358.219H896.67ZM804.883 384.117V375.484H883.848V400.494H817.07V409.889H887.402V418.395H805.01V392.496H871.914V384.117H804.883ZM805.645 317.467V308.961H883.594V333.59H817.832V342.223H885.498V350.729H805.898V325.592H871.533V317.467H805.645ZM968.271 311.246C983.252 311.119 994.868 319.815 997.344 332.574H1019.56V306.041H1031.62V367.105H1019.56V342.477H997.407C995.059 355.553 983.379 364.312 968.271 364.312C950.879 364.312 938.374 353.331 938.438 337.652C938.374 322.164 950.879 311.119 968.271 311.246ZM949.99 337.652C949.927 347.364 957.544 354.156 968.271 354.156C978.809 354.156 986.299 347.364 986.299 337.652C986.299 327.877 978.809 321.212 968.271 321.275C957.544 321.212 949.927 327.877 949.99 337.652ZM957.48 418.395V372.564H969.414V385.768H1019.56V372.564H1031.62V418.395H957.48ZM969.414 408.492H1019.56V395.289H969.414V408.492ZM1153.24 396.051V406.207H1049.14V396.051H1094.97V376.119H1061.84V339.938H1128.61V323.941H1061.58V314.039H1140.55V349.586H1073.77V366.217H1143.21V376.119H1106.9V396.051H1153.24ZM1253.66 359.996V369.898H1174.44V316.197H1252.65V326.1H1186.38V359.996H1253.66ZM1161.49 404.811V394.781H1265.6V404.811H1161.49ZM1362.46 306.041V352.125H1380.74V362.154H1362.46V419.791H1350.53V306.041H1362.46ZM1273.21 333.717V323.814H1301.27V307.564H1313.33V323.814H1340.62V333.717H1273.21ZM1279.05 368.502C1279.05 353.014 1290.99 342.096 1307.36 342.096C1323.68 342.096 1335.61 353.014 1335.67 368.502C1335.61 384.117 1323.68 394.972 1307.36 395.035C1290.99 394.972 1279.05 384.117 1279.05 368.502ZM1290.61 368.502C1290.54 378.404 1297.65 385.006 1307.36 384.879C1317.01 385.006 1324.06 378.404 1324.12 368.502C1324.06 358.79 1317.01 352.062 1307.36 351.998C1297.65 352.062 1290.54 358.79 1290.61 368.502ZM1417.05 314.547C1427.46 314.61 1435.97 320.514 1440.98 330.797H1469.1V306.041H1481.04V420.045H1469.1V376.373H1441.81C1436.92 387.799 1428.03 394.464 1417.05 394.4C1400.1 394.464 1388.11 378.976 1388.23 354.41C1388.11 330.099 1400.1 314.61 1417.05 314.547ZM1399.66 354.41C1399.72 372.501 1406.77 383.609 1417.05 383.609C1427.33 383.609 1434.38 372.501 1434.44 354.41C1434.38 336.573 1427.33 325.401 1417.05 325.338C1406.77 325.401 1399.72 336.573 1399.66 354.41ZM1444.41 340.699C1445.3 344.889 1445.87 349.459 1445.87 354.41C1445.87 358.727 1445.49 362.726 1444.73 366.471H1469.1V340.699H1444.41ZM238.164 520.582V530.23H192.969V551.178H181.035V530.23H134.062V520.582H238.164ZM147.012 572.379V541.275H158.945V562.604H226.611V572.379H147.012ZM147.773 510.553V464.596H159.707V478.434H212.393V464.596H224.453V510.553H147.773ZM159.707 500.904H212.393V487.447H159.707V500.904ZM340.996 461.041V575.045H328.936V461.041H340.996ZM252.891 481.1V471.324H306.211V512.838H265.332V537.721C283.804 537.657 299.863 536.769 318.906 533.658L320.049 543.561C299.927 546.925 282.788 547.687 262.666 547.75H253.018V503.189H293.896V481.1H252.891ZM417.168 471.07C417.104 486.178 435.576 500.333 457.92 503.316L453.223 513.219C434.624 510.235 418.311 500.587 410.884 487.193C403.457 500.587 387.144 510.235 368.672 513.219L363.848 503.316C386.128 500.333 404.536 486.368 404.6 471.07V464.85H417.168V471.07ZM358.896 534.293V524.391H462.617V534.293H416.406V574.791H404.6V534.293H358.896ZM565.957 461.041V574.791H554.023V516.012H528.506V506.109H554.023V461.041H565.957ZM470.996 544.195C501.147 529.469 514.541 508.966 516.636 482.877H476.074V473.229H528.887C528.76 506.173 515.938 534.61 477.344 553.717L470.996 544.195ZM668.027 531.881C691.45 531.881 705.732 539.752 705.732 553.209C705.732 566.856 691.45 574.728 668.027 574.791C644.351 574.728 629.814 566.856 629.814 553.209C629.814 539.752 644.351 531.881 668.027 531.881ZM619.785 520.963V468.15H631.592V484.527H661.426V468.15H673.359V520.963H619.785ZM631.592 511.314H661.426V494.049H631.592V511.314ZM641.875 553.209C641.812 560.826 651.587 565.143 668.027 565.143C684.341 565.143 693.989 560.826 693.926 553.209C693.989 545.655 684.341 541.402 668.027 541.402C651.587 541.402 641.812 545.655 641.875 553.209ZM692.656 528.961V461.041H704.717V488.844H721.221V499.127H704.717V528.961H692.656ZM745.215 466.881V483.512H773.652V466.881H785.586V488.336H810.469V461.041H822.529V523.121H810.469V498.365H785.586V519.312H733.154V466.881H745.215ZM745.215 509.537H773.652V492.906H745.215V509.537ZM748.389 573.141V528.453H760.322V541.275H810.469V528.453H822.402V573.141H748.389ZM760.322 563.365H810.469V550.67H760.322V563.365ZM891.846 462.945C917.49 462.882 932.407 469.801 932.471 482.496C932.407 495.255 917.49 502.174 891.846 502.174C866.201 502.174 851.157 495.255 851.221 482.496C851.157 469.801 866.201 462.882 891.846 462.945ZM840.049 518.805V509.156H943.77V518.805H840.049ZM852.49 536.578V527.564H930.693V554.225H864.424V564.381H933.867V573.648H852.617V545.465H918.76V536.578H852.49ZM863.789 482.496C863.726 489.542 873.755 493.16 891.846 493.16C910.063 493.16 920.093 489.542 920.029 482.496C920.093 475.768 910.063 471.832 891.846 471.832C873.755 471.832 863.726 475.768 863.789 482.496ZM1073.52 461.041V484.781H1090.02V494.811H1073.52V518.551H1061.46V461.041H1073.52ZM985.918 490.367C985.791 475.323 998.55 465.04 1015.75 464.977C1033.02 465.04 1045.59 475.323 1045.59 490.367C1045.59 505.284 1033.02 515.758 1015.75 515.758C998.55 515.758 985.791 505.284 985.918 490.367ZM997.598 490.367C997.534 499.635 1005.28 506.109 1015.75 506.109C1026.23 506.109 1033.91 499.635 1033.91 490.367C1033.91 481.1 1026.23 474.815 1015.75 474.879C1005.28 474.815 997.534 481.1 997.598 490.367ZM1000.01 533.15V523.756H1073.52V552.574H1012.07V563.746H1077.45V573.395H1000.26V543.561H1061.58V533.15H1000.01ZM1126.96 469.547C1143.97 469.61 1156.1 485.099 1156.16 509.41C1156.1 533.976 1143.97 549.464 1126.96 549.4C1109.95 549.464 1097.83 533.976 1097.89 509.41C1097.83 485.099 1109.95 469.61 1126.96 469.547ZM1109.44 509.41C1109.38 527.501 1116.62 538.609 1126.96 538.609C1137.5 538.609 1144.61 527.501 1144.61 509.41C1144.61 491.573 1137.5 480.401 1126.96 480.338C1116.62 480.401 1109.38 491.573 1109.44 509.41ZM1173.05 574.791V461.041H1185.11V505.602H1203.39V515.758H1185.11V574.791H1173.05ZM1312.95 550.67V560.699H1208.85V550.67H1254.68V527.311H1220.78V468.785H1232.84V488.336H1288.7V468.785H1300.63V527.311H1266.61V550.67H1312.95ZM1232.84 517.535H1288.7V498.111H1232.84V517.535ZM1355.86 492.145C1355.86 510.299 1363.48 529.659 1378.71 538.99L1371.98 548.258C1361.32 541.847 1354.15 530.484 1350.21 517.345C1346.08 531.754 1338.21 544.068 1327.17 550.797L1319.68 541.783C1335.74 532.135 1344.24 512.013 1344.18 492.652V471.451H1355.86V492.145ZM1366.4 511.061V501.031H1384.04V463.199H1395.47V569.205H1384.04V511.061H1366.4ZM1407.53 574.791V461.041H1419.08V574.791H1407.53ZM1537.66 550.543V560.572H1433.55V550.543H1458.44V520.836C1449.11 515.694 1443.39 507.569 1443.46 497.35C1443.39 479.449 1460.98 467.706 1485.35 467.643C1509.79 467.706 1527.37 479.449 1527.37 497.35C1527.37 507.379 1521.91 515.44 1512.77 520.582V550.543H1537.66ZM1455.14 497.35C1455.14 509.537 1467.51 517.472 1485.35 517.535C1503.06 517.472 1515.63 509.537 1515.69 497.35C1515.63 485.099 1503.06 477.291 1485.35 477.291C1467.51 477.291 1455.14 485.099 1455.14 497.35ZM1470.37 550.543H1500.59V525.279C1495.95 526.358 1490.81 526.93 1485.35 526.93C1480.02 526.93 1474.94 526.358 1470.37 525.279V550.543ZM1558.86 564.889C1553.91 564.825 1549.78 560.826 1549.84 555.875C1549.78 550.924 1553.91 546.861 1558.86 546.861C1563.75 546.861 1567.81 550.924 1567.87 555.875C1567.81 560.826 1563.75 564.825 1558.86 564.889ZM230.293 717.584V727.232H189.16V676.324H229.15V686.1H201.221V717.584H230.293ZM134.189 765.572V755.797H179.893V732.691H191.699V755.797H238.291V765.572H134.189ZM142.822 727.232V676.451H182.051V686.227H154.883V717.33C164.341 717.203 173.228 716.505 183.066 714.283L184.082 724.312C171.895 726.979 161.611 727.296 149.551 727.232H142.822ZM266.982 760.24L256.826 795.279H246.035L252.764 760.24H266.982ZM406.377 666.041V780.045H394.443V717.457H369.307V751.861H315.986V674.801H328.174V703.873H357.5V674.801H369.307V707.555H394.443V666.041H406.377ZM328.174 741.959H357.5V713.395H328.174V741.959ZM518.35 666.041V780.045H506.289V666.041H518.35ZM430.244 686.1V676.324H483.564V717.838H442.686V742.721C461.157 742.657 477.217 741.769 496.26 738.658L497.402 748.561C477.28 751.925 460.142 752.687 440.02 752.75H430.371V708.189H471.25V686.1H430.244ZM630.957 666.041V780.045H619.023V732.438H596.807V722.408H619.023V701.334H597.441V691.432H619.023V666.041H630.957ZM540.186 685.846V676.07H590.586V717.584H552.5V743.736C568.56 743.673 582.144 742.911 598.33 740.562L599.346 750.465C581.572 753.258 567.036 753.766 549.072 753.766H540.439V708.062H578.779V685.846H540.186ZM707.51 674.928V684.83H667.266V722.916C686.309 722.916 699.004 722.281 713.604 719.488L714.873 729.264C699.004 732.057 685.293 732.818 664.092 732.818H655.332V674.928H707.51ZM669.297 778.014V742.594H681.484V768.238H746.357V778.014H669.297ZM700.4 706.666V697.018H731.377V666.168H743.438V749.068H731.377V706.666H700.4ZM896.416 721.52V731.295H792.695V721.52H838.525V711.363C817.134 710.157 803.804 702.35 803.867 689.908C803.804 676.197 819.609 668.326 844.492 668.326C869.438 668.326 885.054 676.197 885.117 689.908C885.054 702.413 871.787 710.221 850.205 711.363V721.52H896.416ZM800.439 769.889C822.339 766.905 838.335 755.606 838.398 741.324V738.15H850.586V741.324C850.522 755.606 866.519 766.905 888.672 769.889L883.975 779.283C866.201 776.49 851.411 768.683 844.492 756.939C837.51 768.683 822.72 776.49 805.01 779.283L800.439 769.889ZM816.309 689.908C816.245 697.716 826.973 702.032 844.492 702.096C861.885 702.032 872.739 697.716 872.676 689.908C872.739 682.101 861.885 677.594 844.492 677.594C826.973 677.594 816.245 682.101 816.309 689.908ZM999.248 666.041V780.045H987.188V666.041H999.248ZM908.984 714.41C908.984 690.099 921.235 674.61 938.438 674.547C955.322 674.61 967.764 690.099 967.764 714.41C967.764 738.976 955.322 754.464 938.438 754.4C921.235 754.464 908.984 738.976 908.984 714.41ZM920.664 714.41C920.601 732.501 927.837 743.609 938.438 743.609C948.848 743.609 956.084 732.501 956.084 714.41C956.084 696.573 948.848 685.401 938.438 685.338C927.837 685.401 920.601 696.573 920.664 714.41ZM1079.99 674.547C1095.48 674.61 1106.71 687.687 1108.55 708.697H1132.04V666.041H1143.97V780.045H1132.04V718.473H1108.68C1107.35 740.689 1095.86 754.464 1079.99 754.4C1063.04 754.464 1051.04 738.976 1051.17 714.41C1051.04 690.099 1063.04 674.61 1079.99 674.547ZM1062.6 714.41C1062.66 732.501 1069.71 743.609 1079.99 743.609C1090.27 743.609 1097.32 732.501 1097.38 714.41C1097.32 696.573 1090.27 685.401 1079.99 685.338C1069.71 685.401 1062.66 696.573 1062.6 714.41ZM1259.38 733.326V742.594H1176.98V733.326H1212.28V723.043H1224.21V733.326H1259.38ZM1164.29 718.727V671.373H1193.23V680.895H1175.97V709.205C1181.62 708.951 1187.77 708.443 1194.63 706.92L1195.64 716.441C1185.3 718.727 1177.24 718.79 1169.37 718.727H1164.29ZM1185.23 763.414C1185.17 753.131 1197.42 747.354 1217.99 747.291C1238.62 747.354 1250.74 753.131 1250.74 763.414C1250.74 774.078 1238.62 779.728 1217.99 779.791C1197.42 779.728 1185.17 774.078 1185.23 763.414ZM1197.93 763.414C1197.99 768.619 1205.36 771.285 1217.99 771.285C1230.62 771.285 1237.86 768.619 1237.92 763.414C1237.86 758.526 1230.62 755.86 1217.99 755.797C1205.36 755.86 1197.99 758.526 1197.93 763.414ZM1199.33 718.727V671.373H1231.06V680.895H1211.13V709.269C1220.53 709.078 1227.19 708.57 1234.87 706.793L1236.02 716.441C1226.37 718.536 1218.43 718.79 1205.04 718.727H1199.33ZM1226.49 698.541V689.146H1245.54V666.041H1257.34V726.598H1245.54V698.541H1226.49ZM1371.6 666.041V779.791H1360.18V666.041H1371.6ZM1273.47 746.91C1297.59 732.564 1309.14 713.458 1311.24 690.035H1278.8V680.133H1323.23C1323.17 691.241 1321.65 701.842 1318.15 711.744H1336.18V668.961H1347.61V774.205H1336.18V721.393H1313.96C1307.24 734.596 1296.38 746.148 1280.32 755.543L1273.47 746.91ZM1516.2 666.041V779.791H1504.65V721.393H1491.06V774.205H1479.64V668.199H1491.06V711.236H1504.65V666.041H1516.2ZM1416.42 747.672C1433.05 738.341 1440.79 718.727 1440.79 696.129V688.766H1419.46V678.99H1472.28V688.766H1452.47V696.129C1452.47 716.568 1460.15 735.104 1476.72 743.609L1469.61 752.877C1458.44 746.783 1450.95 736.183 1446.88 723.106C1443.01 738.023 1435.52 749.957 1423.91 756.812L1416.42 747.672ZM191.953 830.055V839.703H151.201V854.049H189.795V863.697H151.201V878.932C172.339 878.741 184.526 878.233 199.062 875.758L200.332 885.152C184.78 888.136 171.387 888.644 148.027 888.707H139.141V830.055H191.953ZM151.455 932.379V897.594H163.516V922.604H228.389V932.379H151.455ZM211.504 905.211V820.914H223.564V855.826H240.068V865.855H223.564V905.211H211.504ZM281.328 842.877C281.328 855.318 289.263 867.887 304.053 873.473L297.705 882.74C287.104 878.678 279.678 870.934 275.615 861.603C271.426 872.14 263.682 881.28 252.637 886.041L246.035 876.646C261.396 869.981 269.648 855.509 269.648 842.877V828.15H281.328V842.877ZM266.982 913.971C266.855 901.021 281.646 893.341 305.449 893.277C329.189 893.341 344.106 901.021 344.17 913.971C344.106 926.92 329.189 934.601 305.449 934.537C281.646 934.601 266.855 926.92 266.982 913.971ZM278.916 913.971C278.789 921.207 288.882 925.396 305.449 925.27C321.953 925.396 332.046 921.207 332.109 913.971C332.046 906.671 321.953 902.481 305.449 902.545C288.882 902.481 278.789 906.671 278.916 913.971ZM307.607 887.564V823.199H318.779V850.748H332.109V821.168H343.535V891.119H332.109V860.65H318.779V887.564H307.607ZM448.271 820.66V847.32H464.902V857.223H448.271V883.248H436.211V820.66H448.271ZM359.023 840.211V830.689H386.953V820.025H399.014V830.689H426.816V840.211H359.023ZM365.244 863.189C365.181 851.7 376.226 844.527 392.92 844.527C409.614 844.527 420.469 851.7 420.469 863.189C420.469 874.742 409.614 881.788 392.92 881.725C376.226 881.788 365.181 874.742 365.244 863.189ZM374.766 897.594V888.58H448.271V914.986H386.826V924.508H452.207V933.648H375.02V906.48H436.338V897.594H374.766ZM376.924 863.189C376.797 869.347 383.081 872.965 392.92 872.965C402.695 872.965 409.043 869.347 409.17 863.189C409.043 857.032 402.695 853.224 392.92 853.16C383.081 853.224 376.797 857.032 376.924 863.189ZM561.26 831.07C561.196 846.178 579.668 860.333 602.012 863.316L597.314 873.219C578.716 870.235 562.402 860.587 554.976 847.193C547.549 860.587 531.235 870.235 512.764 873.219L507.939 863.316C530.22 860.333 548.628 846.368 548.691 831.07V824.85H561.26V831.07ZM502.988 894.293V884.391H606.709V894.293H560.498V934.791H548.691V894.293H502.988ZM686.562 896.197C686.562 905.973 691.387 916.319 701.733 922.477C712.144 915.812 717.285 904.957 717.285 896.197V890.738H729.092V896.197C729.028 908.004 736.836 919.43 751.689 924.254L745.723 933.141C734.487 929.269 726.807 921.651 722.871 912.384C719.253 921.524 712.461 929.84 702.051 934.156C691.133 930.03 684.214 921.969 680.723 912.701C676.597 921.651 669.106 929.205 658.379 933.141L652.285 924.254C666.885 919.049 674.819 907.179 674.883 896.197V890.738H686.562V896.197ZM649.365 854.303C649.429 838.37 662.251 827.452 679.707 827.389C697.1 827.452 709.922 838.37 709.922 854.303C709.922 870.045 697.1 880.963 679.707 880.963C662.251 880.963 649.429 870.045 649.365 854.303ZM661.172 854.303C661.108 864.205 668.916 870.934 679.707 870.934C690.371 870.934 698.115 864.205 698.115 854.303C698.115 844.337 690.371 837.608 679.707 837.672C668.916 837.608 661.108 844.337 661.172 854.303ZM729.346 885.914V821.168H741.406V885.914H729.346ZM851.475 854.303V863.951H773.145V825.104H785.078V854.303H851.475ZM759.307 887.945V878.297H863.408V887.945H759.307ZM772.256 932.125V898.736H784.316V922.223H852.236V932.125H772.256ZM913.682 854.557C913.618 873.6 926.123 893.277 943.643 900.768L937.041 910.162C923.647 904.259 912.983 891.69 907.715 876.52C902.446 892.77 891.782 906.607 878.516 913.082L871.533 903.561C888.672 895.499 901.367 874.171 901.494 854.557V842.496H875.469V832.467H939.58V842.496H913.682V854.557ZM953.926 934.791V821.041H965.986V934.791H953.926ZM1105.25 821.041V844.781H1121.76V854.811H1105.25V878.551H1093.19V821.041H1105.25ZM1017.66 850.367C1017.53 835.323 1030.29 825.04 1047.49 824.977C1064.76 825.04 1077.32 835.323 1077.32 850.367C1077.32 865.284 1064.76 875.758 1047.49 875.758C1030.29 875.758 1017.53 865.284 1017.66 850.367ZM1029.34 850.367C1029.27 859.635 1037.02 866.109 1047.49 866.109C1057.96 866.109 1065.64 859.635 1065.64 850.367C1065.64 841.1 1057.96 834.815 1047.49 834.879C1037.02 834.815 1029.27 841.1 1029.34 850.367ZM1031.75 893.15V883.756H1105.25V912.574H1043.81V923.746H1109.19V933.395H1032V903.561H1093.32V893.15H1031.75ZM1158.7 829.547C1175.71 829.61 1187.84 845.099 1187.9 869.41C1187.84 893.976 1175.71 909.464 1158.7 909.4C1141.69 909.464 1129.57 893.976 1129.63 869.41C1129.57 845.099 1141.69 829.61 1158.7 829.547ZM1141.18 869.41C1141.12 887.501 1148.35 898.609 1158.7 898.609C1169.24 898.609 1176.35 887.501 1176.35 869.41C1176.35 851.573 1169.24 840.401 1158.7 840.338C1148.35 840.401 1141.12 851.573 1141.18 869.41ZM1204.79 934.791V821.041H1216.85V865.602H1235.13V875.758H1216.85V934.791H1204.79ZM1344.69 910.67V920.699H1240.59V910.67H1286.42V887.311H1252.52V828.785H1264.58V848.336H1320.44V828.785H1332.37V887.311H1298.35V910.67H1344.69ZM1264.58 877.535H1320.44V858.111H1264.58V877.535ZM1387.6 852.145C1387.6 870.299 1395.21 889.659 1410.45 898.99L1403.72 908.258C1393.06 901.847 1385.88 890.484 1381.95 877.345C1377.82 891.754 1369.95 904.068 1358.91 910.797L1351.42 901.783C1367.48 892.135 1375.98 872.013 1375.92 852.652V831.451H1387.6V852.145ZM1398.13 871.061V861.031H1415.78V823.199H1427.21V929.205H1415.78V871.061H1398.13ZM1439.27 934.791V821.041H1450.82V934.791H1439.27ZM1569.39 910.543V920.572H1465.29V910.543H1490.18V880.836C1480.84 875.694 1475.13 867.569 1475.2 857.35C1475.13 839.449 1492.71 827.706 1517.09 827.643C1541.53 827.706 1559.11 839.449 1559.11 857.35C1559.11 867.379 1553.65 875.44 1544.51 880.582V910.543H1569.39ZM1486.88 857.35C1486.88 869.537 1499.25 877.472 1517.09 877.535C1534.8 877.472 1547.37 869.537 1547.43 857.35C1547.37 845.099 1534.8 837.291 1517.09 837.291C1499.25 837.291 1486.88 845.099 1486.88 857.35ZM1502.11 910.543H1532.32V885.279C1527.69 886.358 1522.55 886.93 1517.09 886.93C1511.76 886.93 1506.68 886.358 1502.11 885.279V910.543ZM1590.6 924.889C1585.64 924.825 1581.52 920.826 1581.58 915.875C1581.52 910.924 1585.64 906.861 1590.6 906.861C1595.48 906.861 1599.55 910.924 1599.61 915.875C1599.55 920.826 1595.48 924.825 1590.6 924.889Z" fill="#828282"/>
</svg>
