<svg width="1360" height="240" viewBox="0 0 1360 240" fill="none" xmlns="http://www.w3.org/2000/svg">
<rect opacity="0.92" x="220" y="80" width="920" height="160" fill="#6FC295" fill-opacity="0.4"/>
<path d="M359.495 26.4004V178.363H338.955V26.4004H359.495ZM224.9 126.763C228.74 126.763 232.999 126.763 237.591 126.679V60.4668H227.738V43.2666H297.374V60.4668H287.689V124.926C291.863 124.592 295.871 124.174 299.545 123.757L301.048 139.621C277.753 143.712 246.859 144.213 227.237 144.297L224.9 126.763ZM256.461 126.429C260.469 126.262 264.477 126.178 268.484 126.011V60.4668H256.461V126.429ZM294.034 115.908V98.541H308.897V85.6826H294.034V68.3154H308.897V29.4062H328.769V171.183H308.897V115.908H294.034ZM421.91 36.5869C446.041 36.5034 463.909 52.0337 463.992 73.8262C463.909 95.7021 446.041 111.149 421.91 111.232C397.947 111.149 379.578 95.7021 379.661 73.8262C379.578 52.0337 397.947 36.5034 421.91 36.5869ZM373.315 130.27C400.452 130.353 438.025 130.019 470.505 125.427L472.175 140.79C438.442 147.386 402.372 147.637 375.82 147.637L373.315 130.27ZM400.869 73.8262C400.786 85.8496 409.887 92.7798 421.91 92.6963C434.017 92.7798 443.202 85.8496 443.285 73.8262C443.202 61.9697 434.017 54.9561 421.91 54.9561C409.887 54.9561 400.786 61.9697 400.869 73.8262ZM479.189 178.697V26.4004H500.397V178.697H479.189ZM657.663 115.574V132.273H625.601V178.363H604.059V132.273H572.33V178.363H551.122V132.273H518.559V115.574H657.663ZM534.59 48.2764V30.9092H641.632V75.1621H556.633V87.5195H645.139V104.553H535.091V59.6318H619.756V48.2764H534.59ZM835.096 26.4004V178.363H814.723V102.215H801.864V171.35H781.658V127.848L769.635 143.796C755.524 136.365 746.423 123.757 740.996 108.31C735.986 126.095 727.052 140.623 712.523 149.307L699.331 132.941C722.459 119.916 730.141 93.0303 730.225 63.9736V59.1309H704.508V42.0977H774.144V59.1309H750.932V63.9736C750.932 90.4419 758.78 115.658 781.658 127.514V28.5713H801.864V84.8477H814.723V26.4004H835.096ZM970.152 26.4004V62.3037H989.523V80.0049H970.152V115.908H948.777V26.4004H970.152ZM846.912 99.543C858.017 99.543 870.625 99.543 883.817 99.2925V92.6128C867.202 90.5254 857.015 83.6787 857.099 72.8242C857.015 60.4668 871.627 53.2026 894.338 53.2861C916.882 53.2026 931.494 60.4668 931.577 72.8242C931.494 83.5952 921.391 90.4419 905.025 92.5293V98.541C917.55 97.873 929.991 96.8711 941.764 95.3682L943.267 108.561C910.87 113.988 875.635 114.238 849.083 114.238L846.912 99.543ZM850.92 50.1133V35.9189H883.817V25.0645H905.025V35.9189H937.923V50.1133H850.92ZM867.118 135.446V121.252H970.152V155.318H888.66V163.167H975.162V177.361H867.285V142.46H948.777V135.446H867.118ZM877.472 72.8242C877.388 77.4165 883.483 79.7544 894.338 79.8379C905.025 79.7544 911.121 77.4165 911.204 72.8242C911.121 68.3989 905.025 66.4785 894.338 66.4785C883.483 66.4785 877.388 68.3989 877.472 72.8242ZM1133.26 98.374V115.407H994.66V98.374H1025.89V80.1719C1014.78 75.2456 1008.52 67.731 1008.52 57.9619C1008.52 39.5928 1030.15 28.6548 1063.96 28.5713C1097.53 28.6548 1119.15 39.5928 1119.24 57.9619C1119.15 67.8979 1112.72 75.4961 1101.37 80.3389V98.374H1133.26ZM1010.52 150.643C1010.52 133.108 1030.48 123.339 1063.79 123.423C1096.61 123.339 1116.56 133.108 1116.73 150.643C1116.56 168.594 1096.61 178.196 1063.79 178.196C1030.48 178.196 1010.52 168.594 1010.52 150.643ZM1030.73 57.9619C1030.56 66.3115 1042.5 70.5698 1063.96 70.4863C1085.17 70.5698 1097.19 66.3115 1097.19 57.9619C1097.19 49.4453 1085.17 44.9365 1063.96 44.9365C1042.5 44.9365 1030.56 49.4453 1030.73 57.9619ZM1032.23 150.643C1032.15 158.408 1042.75 162.332 1063.79 162.332C1084.42 162.332 1095.27 158.408 1095.36 150.643C1095.27 143.128 1084.42 139.538 1063.79 139.454C1042.75 139.538 1032.15 143.128 1032.23 150.643ZM1047.43 98.374H1080.16V85.5991C1075.15 86.2671 1069.72 86.5176 1063.96 86.5176C1058.03 86.5176 1052.52 86.1836 1047.43 85.5991V98.374Z" fill="#1F1F1F"/>
</svg>
