<svg width="26" height="25" viewBox="0 0 26 25" fill="none" xmlns="http://www.w3.org/2000/svg">
<path d="M18.8333 2.3938C17.1172 1.40114 15.1249 0.833008 12.9999 0.833008C6.55659 0.833008 1.33325 6.05635 1.33325 12.4997C1.33325 14.366 1.77148 16.1299 2.55062 17.6943C2.75768 18.1099 2.8266 18.5851 2.70656 19.0337L2.01168 21.6308C1.71003 22.7582 2.74143 23.7895 3.86883 23.4879L6.46587 22.7931C6.9145 22.673 7.38966 22.742 7.80537 22.9489C9.36968 23.7281 11.1336 24.1663 12.9999 24.1663C19.4432 24.1663 24.6666 18.9429 24.6666 12.4997C24.6666 10.3747 24.0984 8.38236 23.1058 6.66634" stroke="#9DB2CE" stroke-width="1.5" stroke-linecap="round"/>
<path d="M8.33325 12.5H8.34375M12.9894 12.5H12.9999M17.6561 12.5H17.6666" stroke="#9DB2CE" stroke-width="2" stroke-linecap="round" stroke-linejoin="round"/>
</svg>
