<svg width="3120" height="240" viewBox="0 0 3120 240" fill="none" xmlns="http://www.w3.org/2000/svg">
<path d="M52.4606 72.9561C52.5441 89.2378 62.0627 105.687 81.8513 113.201L71.9987 127.396C58.5558 122.302 49.2043 112.617 43.777 100.927C38.2663 114.37 28.4138 125.893 14.0524 131.904L4.0329 117.71C24.8234 108.525 34.509 89.6553 34.5925 72.9561V54.2529H52.4606V72.9561ZM31.7536 167.808C31.6701 150.44 51.7092 140.087 83.5212 140.087C115.083 140.087 135.205 150.44 135.289 167.808C135.205 185.258 115.083 195.695 83.5212 195.695C51.7092 195.695 31.6701 185.258 31.7536 167.808ZM50.2897 167.808C50.2062 176.742 62.5637 181.584 83.5212 181.501C104.145 181.584 116.502 176.742 116.586 167.808C116.502 158.957 104.145 154.114 83.5212 154.114C62.5637 154.114 50.2062 158.957 50.2897 167.808ZM84.3561 132.906V47.9072H101.723V83.1426H116.753V45.0684H134.454V137.582H116.753V98.3389H101.723V132.906H84.3561ZM271.013 44.9014V81.6396H291.386V97.1699H271.013V133.741H252.477V44.9014H271.013ZM150.111 118.545C161.466 118.545 174.575 118.545 188.185 118.211V110.613C171.235 108.859 160.715 101.929 160.798 90.8242C160.715 78.6338 175.076 71.4531 197.203 71.4531C219.329 71.4531 233.607 78.6338 233.607 90.8242C233.607 101.762 223.337 108.776 206.721 110.529V117.543C219.58 116.875 232.522 115.873 244.629 114.203L246.131 125.893C213.818 131.32 178.416 131.57 152.115 131.57L150.111 118.545ZM153.952 67.7793V55.0879H188.185V43.7324H206.721V55.0879H240.621V67.7793H153.952ZM170.15 152.277V139.753H271.013V172.316H189.02V182.002H276.357V194.526H170.484V160.794H252.477V152.277H170.15ZM178.667 90.8242C178.5 96.2515 185.513 99.1738 197.203 99.1738C208.892 99.1738 215.906 96.2515 215.906 90.8242C215.906 85.8145 208.892 83.2261 197.203 83.1426C185.513 83.2261 178.5 85.8145 178.667 90.8242ZM428.614 44.9014V195.862H410.913V44.9014H428.614ZM295.855 145.598C299.946 145.598 304.622 145.514 309.548 145.514V77.6318H298.861V62.4355H367.996V77.6318H357.308V143.677C361.984 143.343 366.409 142.926 370.501 142.425L371.837 156.285C348.541 160.293 317.564 160.877 298.026 160.961L295.855 145.598ZM326.248 145.18L340.609 144.679V77.6318H326.248V145.18ZM364.489 132.906V117.71H381.355V102.347H364.489V86.9834H381.355V48.0742H398.555V188.348H381.355V132.906H364.489ZM569.682 44.9014V195.862H550.979V44.9014H569.682ZM444.605 154.281C484.182 135.495 502.384 109.945 505.724 75.6279H452.287V60.9326H524.594C524.594 105.854 507.144 144.011 454.291 169.144L444.605 154.281ZM727.283 106.188V120.883H667.5V132.238H710.083V169.311H624.249V180.332H714.257V194.526H606.046V155.951H691.88V146.266H605.879V132.238H648.963V120.883H589.681V106.188H727.283ZM607.048 96.6689V49.5771H709.582V96.6689H607.048ZM625.25 82.1406H691.045V64.1055H625.25V82.1406ZM912.397 123.054V137.916H854.117V163.967H835.747V137.916H774.461V123.054H912.397ZM791.161 192.856V151.275H809.53V177.827H897.201V192.856H791.161ZM792.497 111.197V49.7441H810.866V66.7773H875.993V49.7441H894.362V111.197H792.497ZM810.866 96.502H875.993V80.6377H810.866V96.502ZM1046.45 44.9014V196.029H1028.08V44.9014H1046.45ZM928.889 73.123V58.0938H1000.03V114.704H948.093V145.097C971.89 144.93 992.346 143.677 1015.89 139.753L1017.56 154.949C991.929 159.375 969.385 160.376 942.248 160.293H929.056V100.009H981.158V73.123H928.889ZM1145.44 57.4258C1145.35 76.3794 1166.65 95.667 1198.88 99.8418L1191.53 114.871C1165.89 111.03 1145.52 98.4224 1135.67 81.3892C1125.82 98.4224 1105.53 111.03 1080.14 114.871L1072.8 99.8418C1104.69 95.667 1125.9 76.5464 1125.9 57.4258V49.7441H1145.44V57.4258ZM1066.78 143.26V127.896H1204.39V143.26H1144.44V195.862H1126.07V143.26H1066.78ZM1339.28 44.9014V195.862H1320.74V119.046H1288.84V103.85H1320.74V44.9014H1339.28ZM1211.86 154.114C1250.94 134.91 1267.72 109.444 1270.81 75.6279H1218.87V60.9326H1289.51C1289.34 105.52 1273.56 143.009 1221.55 168.643L1211.86 154.114Z" fill="#8F8F8F"/>
<rect opacity="0.92" x="1980" y="80" width="920" height="160" fill="#6FC295" fill-opacity="0.4"/>
<path d="M2119.5 26.4004V178.363H2098.96V26.4004H2119.5ZM1984.9 126.763C1988.74 126.763 1993 126.763 1997.59 126.679V60.4668H1987.74V43.2666H2057.37V60.4668H2047.69V124.926C2051.86 124.592 2055.87 124.174 2059.55 123.757L2061.05 139.621C2037.75 143.712 2006.86 144.213 1987.24 144.297L1984.9 126.763ZM2016.46 126.429C2020.47 126.262 2024.48 126.178 2028.48 126.011V60.4668H2016.46V126.429ZM2054.03 115.908V98.541H2068.9V85.6826H2054.03V68.3154H2068.9V29.4062H2088.77V171.183H2068.9V115.908H2054.03ZM2181.91 36.5869C2206.04 36.5034 2223.91 52.0337 2223.99 73.8262C2223.91 95.7021 2206.04 111.149 2181.91 111.232C2157.95 111.149 2139.58 95.7021 2139.66 73.8262C2139.58 52.0337 2157.95 36.5034 2181.91 36.5869ZM2133.32 130.27C2160.45 130.353 2198.02 130.019 2230.5 125.427L2232.17 140.79C2198.44 147.386 2162.37 147.637 2135.82 147.637L2133.32 130.27ZM2160.87 73.8262C2160.79 85.8496 2169.89 92.7798 2181.91 92.6963C2194.02 92.7798 2203.2 85.8496 2203.29 73.8262C2203.2 61.9697 2194.02 54.9561 2181.91 54.9561C2169.89 54.9561 2160.79 61.9697 2160.87 73.8262ZM2239.19 178.697V26.4004H2260.4V178.697H2239.19ZM2417.66 115.574V132.273H2385.6V178.363H2364.06V132.273H2332.33V178.363H2311.12V132.273H2278.56V115.574H2417.66ZM2294.59 48.2764V30.9092H2401.63V75.1621H2316.63V87.5195H2405.14V104.553H2295.09V59.6318H2379.76V48.2764H2294.59ZM2595.1 26.4004V178.363H2574.72V102.215H2561.86V171.35H2541.66V127.848L2529.63 143.796C2515.52 136.365 2506.42 123.757 2501 108.31C2495.99 126.095 2487.05 140.623 2472.52 149.307L2459.33 132.941C2482.46 119.916 2490.14 93.0303 2490.22 63.9736V59.1309H2464.51V42.0977H2534.14V59.1309H2510.93V63.9736C2510.93 90.4419 2518.78 115.658 2541.66 127.514V28.5713H2561.86V84.8477H2574.72V26.4004H2595.1ZM2730.15 26.4004V62.3037H2749.52V80.0049H2730.15V115.908H2708.78V26.4004H2730.15ZM2606.91 99.543C2618.02 99.543 2630.62 99.543 2643.82 99.2925V92.6128C2627.2 90.5254 2617.02 83.6787 2617.1 72.8242C2617.02 60.4668 2631.63 53.2026 2654.34 53.2861C2676.88 53.2026 2691.49 60.4668 2691.58 72.8242C2691.49 83.5952 2681.39 90.4419 2665.03 92.5293V98.541C2677.55 97.873 2689.99 96.8711 2701.76 95.3682L2703.27 108.561C2670.87 113.988 2635.63 114.238 2609.08 114.238L2606.91 99.543ZM2610.92 50.1133V35.9189H2643.82V25.0645H2665.03V35.9189H2697.92V50.1133H2610.92ZM2627.12 135.446V121.252H2730.15V155.318H2648.66V163.167H2735.16V177.361H2627.29V142.46H2708.78V135.446H2627.12ZM2637.47 72.8242C2637.39 77.4165 2643.48 79.7544 2654.34 79.8379C2665.03 79.7544 2671.12 77.4165 2671.2 72.8242C2671.12 68.3989 2665.03 66.4785 2654.34 66.4785C2643.48 66.4785 2637.39 68.3989 2637.47 72.8242ZM2893.26 98.374V115.407H2754.66V98.374H2785.89V80.1719C2774.78 75.2456 2768.52 67.731 2768.52 57.9619C2768.52 39.5928 2790.15 28.6548 2823.96 28.5713C2857.53 28.6548 2879.15 39.5928 2879.24 57.9619C2879.15 67.8979 2872.72 75.4961 2861.37 80.3389V98.374H2893.26ZM2770.52 150.643C2770.52 133.108 2790.48 123.339 2823.79 123.423C2856.61 123.339 2876.56 133.108 2876.73 150.643C2876.56 168.594 2856.61 178.196 2823.79 178.196C2790.48 178.196 2770.52 168.594 2770.52 150.643ZM2790.73 57.9619C2790.56 66.3115 2802.5 70.5698 2823.96 70.4863C2845.17 70.5698 2857.19 66.3115 2857.19 57.9619C2857.19 49.4453 2845.17 44.9365 2823.96 44.9365C2802.5 44.9365 2790.56 49.4453 2790.73 57.9619ZM2792.23 150.643C2792.15 158.408 2802.75 162.332 2823.79 162.332C2844.42 162.332 2855.27 158.408 2855.36 150.643C2855.27 143.128 2844.42 139.538 2823.79 139.454C2802.75 139.538 2792.15 143.128 2792.23 150.643ZM2807.43 98.374H2840.16V85.5991C2835.15 86.2671 2829.72 86.5176 2823.96 86.5176C2818.03 86.5176 2812.52 86.1836 2807.43 85.5991V98.374Z" fill="#1F1F1F"/>
</svg>
