<svg width="1360" height="240" viewBox="0 0 1360 240" fill="none" xmlns="http://www.w3.org/2000/svg">
<rect y="80" width="1360" height="160" fill="#6FC295" fill-opacity="0.4"/>
<path d="M53.5471 53.4531C53.5471 69.9019 62.0637 86.1001 82.2697 93.8652L70.9142 110.063C57.8889 105.137 48.9548 96.1196 43.5275 84.9312C38.0168 98.04 28.4982 108.978 14.3039 114.906L2.78143 98.541C24.2399 89.106 32.84 70.4028 32.84 53.4531V35.585H53.5471V53.4531ZM31.0031 149.975C30.9196 132.19 51.3762 121.502 83.6057 121.586C115.668 121.502 136.208 132.19 136.375 149.975C136.208 167.592 115.668 178.447 83.6057 178.363C51.3762 178.447 30.9196 167.592 31.0031 149.975ZM52.3781 149.975C52.2111 158.157 63.6501 162.332 83.6057 162.332C103.394 162.332 114.833 158.157 114.833 149.975C114.833 141.708 103.394 137.45 83.6057 137.45C63.6501 137.45 52.2111 141.708 52.3781 149.975ZM82.7707 114.739V29.2393H102.643V63.6396H115.334V26.5674H135.54V119.415H115.334V80.8398H102.643V114.739H82.7707ZM272.601 26.4004V62.3037H291.972V80.0049H272.601V115.908H251.226V26.4004H272.601ZM149.36 99.543C160.465 99.543 173.073 99.543 186.266 99.2925V92.6128C169.65 90.5254 159.464 83.6787 159.547 72.8242C159.464 60.4668 174.075 53.2026 196.786 53.2861C219.33 53.2026 233.942 60.4668 234.026 72.8242C233.942 83.5952 223.839 90.4419 207.474 92.5293V98.541C219.998 97.873 232.439 96.8711 244.212 95.3682L245.715 108.561C213.318 113.988 178.083 114.238 151.531 114.238L149.36 99.543ZM153.368 50.1133V35.9189H186.266V25.0645H207.474V35.9189H240.371V50.1133H153.368ZM169.567 135.446V121.252H272.601V155.318H191.109V163.167H277.61V177.361H169.734V142.46H251.226V135.446H169.567ZM179.92 72.8242C179.837 77.4165 185.932 79.7544 196.786 79.8379C207.474 79.7544 213.569 77.4165 213.652 72.8242C213.569 68.3989 207.474 66.4785 196.786 66.4785C185.932 66.4785 179.837 68.3989 179.92 72.8242ZM430.034 26.4004V178.363H409.494V26.4004H430.034ZM295.439 126.763C299.279 126.763 303.538 126.763 308.13 126.679V60.4668H298.277V43.2666H367.913V60.4668H358.228V124.926C362.402 124.592 366.41 124.174 370.084 123.757L371.587 139.621C348.292 143.712 317.398 144.213 297.776 144.297L295.439 126.763ZM327 126.429C331.008 126.262 335.016 126.178 339.024 126.011V60.4668H327V126.429ZM364.573 115.908V98.541H379.436V85.6826H364.573V68.3154H379.436V29.4062H399.308V171.183H379.436V115.908H364.573ZM570.936 26.4004V178.363H549.394V26.4004H570.936ZM443.688 135.279C482.931 116.743 500.214 92.6963 503.638 58.9639H451.87V42.2646H525.347C525.263 88.3545 509.148 126.679 454.876 152.312L443.688 135.279ZM727.868 86.6846V103.551H669.087V113.236H711.002V152.146H626.337V161.33H715.01V177.361H605.463V137.116H689.961V129.268H605.296V113.236H647.712V103.551H589.265V86.6846H727.868ZM606.465 78.6689V30.7422H710.334V78.6689H606.465ZM627.339 62.3037H689.126V47.2744H627.339V62.3037ZM911.98 104.386V121.085H854.702V145.633H833.661V121.085H772.876V104.386H911.98ZM789.241 175.691V133.609H810.282V158.658H896.617V175.691H789.241ZM790.744 93.6982V31.2432H811.785V47.1074H872.737V31.2432H893.945V93.6982H790.744ZM811.785 76.832H872.737V62.9717H811.785V76.832ZM1046.54 26.4004V178.697H1025.33V26.4004H1046.54ZM927.137 56.292V39.0918H999.444V97.7061H949.347V125.594C972.559 125.427 992.18 124.258 1014.47 120.584L1016.31 137.784C991.345 142.209 968.718 143.128 940.997 143.128H927.304V80.8398H977.735V56.292H927.137ZM1145.86 38.2568C1145.77 56.2085 1164.14 75.9971 1198.96 80.3389L1190.61 97.5391C1164.06 93.6982 1144.6 81.4243 1134.67 64.9756C1124.65 81.3408 1105.28 93.6982 1079.06 97.5391L1070.54 80.3389C1105.11 75.9971 1123.4 56.2085 1123.48 38.2568V30.9092H1145.86V38.2568ZM1065.2 126.429V109.062H1203.8V126.429H1144.69V178.363H1123.65V126.429H1065.2ZM1339.36 26.4004V178.363H1318.15V102.215H1287.93V84.8477H1318.15V26.4004H1339.36ZM1209.77 135.279C1248.18 116.326 1264.13 92.2788 1267.3 58.9639H1216.95V42.2646H1288.76C1288.68 88.104 1273.82 125.677 1220.8 151.979L1209.77 135.279Z" fill="#1F1F1F"/>
</svg>
