<svg width="57" height="57" viewBox="0 0 57 57" fill="none" xmlns="http://www.w3.org/2000/svg">
<rect x="0.5" y="0.5" width="56" height="56" rx="28" fill="#6FC295"/>
<path d="M37.2099 22.8882L30.9699 18.5223C29.2691 17.3307 26.6583 17.3957 25.0224 18.6632L19.5949 22.899C18.5116 23.744 17.6558 25.4773 17.6558 26.8423V34.3173C17.6558 37.0798 19.8983 39.3332 22.6608 39.3332H34.3391C37.1016 39.3332 39.3441 37.0907 39.3441 34.3282V26.9832C39.3441 25.5207 38.4016 23.7223 37.2099 22.8882ZM29.3124 34.9998C29.3124 35.444 28.9441 35.8123 28.4999 35.8123C28.0558 35.8123 27.6874 35.444 27.6874 34.9998V31.7498C27.6874 31.3057 28.0558 30.9373 28.4999 30.9373C28.9441 30.9373 29.3124 31.3057 29.3124 31.7498V34.9998Z" fill="white"/>
</svg>
