<svg width="110" height="110" viewBox="0 0 110 110" fill="none" xmlns="http://www.w3.org/2000/svg">
<rect x="4.125" y="4.125" width="101.75" height="101.75" rx="50.875" stroke="#C3C3C3" stroke-width="8.25"/>
<path d="M50.0693 67.1127C50.1544 56.2652 53.2172 52.9472 58.5771 49.6716C62.1929 47.332 65.0005 44.4819 64.958 40.228C65.0005 35.4636 61.2571 32.4008 56.6203 32.4008C52.4089 32.4008 48.3252 35.1233 48.0274 40.8235H37.3927C37.6904 29.3805 46.1982 23.5527 56.7054 23.5527C68.1909 23.5527 76.0607 29.9335 76.1032 40.0578C76.0607 46.9917 72.615 51.5008 67.0849 54.7763C62.1504 57.7966 60.1085 60.7318 60.0234 67.1127V67.8784H50.0693V67.1127ZM48.708 80.0445C48.6655 76.4713 51.6858 73.5361 55.3441 73.4935C58.8749 73.5361 61.8952 76.4713 61.8952 80.0445C61.8952 83.7029 58.8749 86.6806 55.3441 86.6806C51.6858 86.6806 48.6655 83.7029 48.708 80.0445Z" fill="#C3C3C3"/>
</svg>
