<svg width="528" height="223" viewBox="0 0 528 223" fill="none" xmlns="http://www.w3.org/2000/svg">
<rect width="528" height="223" rx="111.5" fill="#6FC295"/>
<path d="M253.047 58.2578V136.07H238.164V97.8672H220.703V85.7969H238.164V58.2578H253.047ZM162.578 112.047C180.215 106.539 188.184 92.6523 188.242 79V77.3594H166.797V65.4062H224.688V77.3594H203.477V79.1172C203.418 91.4805 211.035 104.664 227.969 110.172L220.586 122.008C208.809 118.141 200.664 110.406 196.035 100.855C191.289 111.461 182.793 120.074 170.195 124.234L162.578 112.047ZM182.266 162.906V129.273H197.266V150.953H255.625V162.906H182.266ZM322.773 95.875V109H364.141V120.953H266.875V109H308.008V95.875H322.773ZM271.914 90.6016C295.469 87.6133 307.715 75.4258 307.773 63.4141V59.8984H323.008V63.4141C322.949 75.8945 334.902 87.6133 358.984 90.6016L353.242 102.203C335.195 99.5078 321.953 91.9492 315.215 81.2852C308.418 91.8906 295.176 99.5664 277.188 102.203L271.914 90.6016ZM278.008 145.914C278.008 133.785 292.012 126.871 315.391 126.812C338.594 126.871 352.422 133.785 352.539 145.914C352.422 158.043 338.594 164.84 315.391 164.781C292.012 164.84 278.008 158.043 278.008 145.914ZM293.242 145.914C293.184 151.129 300.449 153.648 315.391 153.648C329.98 153.648 337.48 151.129 337.539 145.914C337.48 140.582 329.98 138.238 315.391 138.18C300.449 138.238 293.184 140.582 293.242 145.914Z" fill="white"/>
</svg>
