<svg width="1360" height="204" viewBox="0 0 1360 204" fill="none" xmlns="http://www.w3.org/2000/svg">
<path d="M357.575 26.9014V177.862H339.874V26.9014H357.575ZM224.816 127.598C228.907 127.598 233.583 127.514 238.509 127.514V59.6318H227.822V44.4355H296.957V59.6318H286.269V125.677C290.945 125.343 295.37 124.926 299.462 124.425L300.797 138.285C277.502 142.293 246.525 142.877 226.987 142.961L224.816 127.598ZM255.209 127.18L269.57 126.679V59.6318H255.209V127.18ZM293.45 114.906V99.71H310.316V84.3467H293.45V68.9834H310.316V30.0742H327.516V170.348H310.316V114.906H293.45ZM421.493 37.4219C445.456 37.3384 462.907 52.4512 463.074 73.8262C462.907 95.2847 445.456 110.314 421.493 110.397C397.78 110.314 379.995 95.2847 380.079 73.8262C379.995 52.4512 397.78 37.3384 421.493 37.4219ZM373.232 131.271C400.452 131.271 438.108 130.938 470.755 126.262L472.258 139.788C438.442 146.217 402.205 146.468 375.57 146.468L373.232 131.271ZM398.448 73.8262C398.364 86.4341 408.3 94.1992 421.493 94.1992C434.852 94.1992 444.788 86.4341 444.872 73.8262C444.788 61.3018 434.936 53.4531 421.493 53.4531C408.3 53.4531 398.364 61.3018 398.448 73.8262ZM479.773 178.029V26.9014H498.309V178.029H479.773ZM656.411 116.075V130.604H623.179V177.862H604.476V130.604H570.577V177.862H552.041V130.604H518.475V116.075H656.411ZM534.673 47.1074V31.9111H640.379V74.1602H553.71V88.5215H643.719V103.551H535.007V60.2998H621.342V47.1074H534.673ZM834.511 26.9014V177.862H816.81V101.38H801.28V170.515H783.746V29.5732H801.28V86.0166H816.81V26.9014H834.511ZM701.084 133.943C723.461 121.252 732.479 94.9507 732.479 65.4766V58.2959H705.593V43.4336H775.229V58.2959H750.514V65.4766C750.514 92.2788 759.532 117.077 781.909 128.6L771.054 142.794C756.693 135.029 747.258 121.753 741.914 105.388C736.821 124.174 727.386 139.287 712.44 148.138L701.084 133.943ZM969.234 26.9014V63.6396H989.607V79.1699H969.234V115.741H950.698V26.9014H969.234ZM848.331 100.545C859.687 100.545 872.796 100.545 886.406 100.211V92.6128C869.456 90.8594 858.935 83.9292 859.019 72.8242C858.935 60.6338 873.297 53.4531 895.423 53.4531C917.55 53.4531 931.828 60.6338 931.828 72.8242C931.828 83.7622 921.558 90.7759 904.942 92.5293V99.543C917.8 98.875 930.742 97.873 942.849 96.2031L944.352 107.893C912.039 113.32 876.637 113.57 850.335 113.57L848.331 100.545ZM852.172 49.7793V37.0879H886.406V25.7324H904.942V37.0879H938.841V49.7793H852.172ZM868.371 134.277V121.753H969.234V154.316H887.241V164.002H974.578V176.526H868.705V142.794H950.698V134.277H868.371ZM876.887 72.8242C876.72 78.2515 883.734 81.1738 895.423 81.1738C907.113 81.1738 914.126 78.2515 914.126 72.8242C914.126 67.8145 907.113 65.2261 895.423 65.1426C883.734 65.2261 876.72 67.8145 876.887 72.8242ZM1133.35 99.543V114.405H995.745V99.543H1027.81V80.4224C1016.37 75.5796 1009.94 67.9814 1009.94 58.1289C1009.94 40.0103 1031.06 29.4062 1064.38 29.4062C1097.61 29.4062 1118.74 40.0103 1118.82 58.1289C1118.74 68.0649 1112.22 75.6631 1100.78 80.4224V99.543H1133.35ZM1011.78 150.476C1011.78 133.108 1031.4 123.423 1064.38 123.59C1096.86 123.423 1116.56 133.108 1116.65 150.476C1116.56 168.01 1096.86 177.528 1064.38 177.528C1031.4 177.528 1011.78 168.01 1011.78 150.476ZM1029.31 58.1289C1029.14 67.3135 1042.09 72.2397 1064.38 72.1562C1086.59 72.2397 1099.61 67.3135 1099.61 58.1289C1099.61 48.8608 1086.59 43.6841 1064.38 43.7676C1042.09 43.6841 1029.14 48.8608 1029.31 58.1289ZM1030.65 150.476C1030.56 158.992 1042.42 163.584 1064.38 163.501C1086 163.584 1097.94 158.992 1098.11 150.476C1097.94 142.042 1086 137.701 1064.38 137.617C1042.42 137.701 1030.56 142.042 1030.65 150.476ZM1046.51 99.543H1082.25V85.1816C1076.82 85.9331 1070.81 86.3506 1064.38 86.3506C1057.95 86.3506 1051.94 85.9331 1046.51 85.1816V99.543Z" fill="#8F8F8F"/>
</svg>
