<svg width="1360" height="204" viewBox="0 0 1360 204" fill="none" xmlns="http://www.w3.org/2000/svg">
<path d="M52.4606 54.9561C52.5441 71.2378 62.0627 87.6865 81.8513 95.2012L71.9987 109.396C58.5558 104.302 49.2043 94.6167 43.777 82.9272C38.2663 96.3701 28.4138 107.893 14.0524 113.904L4.0329 99.71C24.8234 90.5254 34.509 71.6553 34.5925 54.9561V36.2529H52.4606V54.9561ZM31.7536 149.808C31.6701 132.44 51.7092 122.087 83.5212 122.087C115.083 122.087 135.205 132.44 135.289 149.808C135.205 167.258 115.083 177.695 83.5212 177.695C51.7092 177.695 31.6701 167.258 31.7536 149.808ZM50.2897 149.808C50.2062 158.742 62.5637 163.584 83.5212 163.501C104.145 163.584 116.502 158.742 116.586 149.808C116.502 140.957 104.145 136.114 83.5212 136.114C62.5637 136.114 50.2062 140.957 50.2897 149.808ZM84.3561 114.906V29.9072H101.723V65.1426H116.753V27.0684H134.454V119.582H116.753V80.3389H101.723V114.906H84.3561ZM271.013 26.9014V63.6396H291.386V79.1699H271.013V115.741H252.477V26.9014H271.013ZM150.111 100.545C161.466 100.545 174.575 100.545 188.185 100.211V92.6128C171.235 90.8594 160.715 83.9292 160.798 72.8242C160.715 60.6338 175.076 53.4531 197.203 53.4531C219.329 53.4531 233.607 60.6338 233.607 72.8242C233.607 83.7622 223.337 90.7759 206.721 92.5293V99.543C219.58 98.875 232.522 97.873 244.629 96.2031L246.131 107.893C213.818 113.32 178.416 113.57 152.115 113.57L150.111 100.545ZM153.952 49.7793V37.0879H188.185V25.7324H206.721V37.0879H240.621V49.7793H153.952ZM170.15 134.277V121.753H271.013V154.316H189.02V164.002H276.357V176.526H170.484V142.794H252.477V134.277H170.15ZM178.667 72.8242C178.5 78.2515 185.513 81.1738 197.203 81.1738C208.892 81.1738 215.906 78.2515 215.906 72.8242C215.906 67.8145 208.892 65.2261 197.203 65.1426C185.513 65.2261 178.5 67.8145 178.667 72.8242ZM428.614 26.9014V177.862H410.913V26.9014H428.614ZM295.855 127.598C299.946 127.598 304.622 127.514 309.548 127.514V59.6318H298.861V44.4355H367.996V59.6318H357.308V125.677C361.984 125.343 366.409 124.926 370.501 124.425L371.837 138.285C348.541 142.293 317.564 142.877 298.026 142.961L295.855 127.598ZM326.248 127.18L340.609 126.679V59.6318H326.248V127.18ZM364.489 114.906V99.71H381.355V84.3467H364.489V68.9834H381.355V30.0742H398.555V170.348H381.355V114.906H364.489ZM569.682 26.9014V177.862H550.979V26.9014H569.682ZM444.605 136.281C484.182 117.495 502.384 91.9448 505.724 57.6279H452.287V42.9326H524.594C524.594 87.8535 507.144 126.011 454.291 151.144L444.605 136.281ZM727.283 88.1875V102.883H667.5V114.238H710.083V151.311H624.249V162.332H714.257V176.526H606.046V137.951H691.88V128.266H605.879V114.238H648.963V102.883H589.681V88.1875H727.283ZM607.048 78.6689V31.5771H709.582V78.6689H607.048ZM625.25 64.1406H691.045V46.1055H625.25V64.1406ZM912.397 105.054V119.916H854.117V145.967H835.747V119.916H774.461V105.054H912.397ZM791.161 174.856V133.275H809.53V159.827H897.201V174.856H791.161ZM792.497 93.1973V31.7441H810.866V48.7773H875.993V31.7441H894.362V93.1973H792.497ZM810.866 78.502H875.993V62.6377H810.866V78.502ZM1046.45 26.9014V178.029H1028.08V26.9014H1046.45ZM928.889 55.123V40.0938H1000.03V96.7041H948.093V127.097C971.89 126.93 992.346 125.677 1015.89 121.753L1017.56 136.949C991.929 141.375 969.385 142.376 942.248 142.293H929.056V82.0088H981.158V55.123H928.889ZM1145.44 39.4258C1145.35 58.3794 1166.65 77.667 1198.88 81.8418L1191.53 96.8711C1165.89 93.0303 1145.52 80.4224 1135.67 63.3892C1125.82 80.4224 1105.53 93.0303 1080.14 96.8711L1072.8 81.8418C1104.69 77.667 1125.9 58.5464 1125.9 39.4258V31.7441H1145.44V39.4258ZM1066.78 125.26V109.896H1204.39V125.26H1144.44V177.862H1126.07V125.26H1066.78ZM1339.28 26.9014V177.862H1320.74V101.046H1288.84V85.8496H1320.74V26.9014H1339.28ZM1211.86 136.114C1250.94 116.91 1267.72 91.4438 1270.81 57.6279H1218.87V42.9326H1289.51C1289.34 87.5195 1273.56 125.009 1221.55 150.643L1211.86 136.114Z" fill="#8F8F8F"/>
</svg>
